<?xml version="1.0" encoding="utf-8"?>
<!-- Generator: Adobe Illustrator 16.0.0, SVG Export Plug-In . SVG Version: 6.00 Build 0)  -->
<!DOCTYPE svg PUBLIC "-//W3C//DTD SVG 1.1//EN" "http://www.w3.org/Graphics/SVG/1.1/DTD/svg11.dtd">
<svg version="1.1" id="Layer_1" xmlns="http://www.w3.org/2000/svg" xmlns:xlink="http://www.w3.org/1999/xlink" x="0px" y="0px"
	 width="227.838px" height="88.611px" viewBox="0 0 227.838 88.611" enable-background="new 0 0 227.838 88.611"
	 xml:space="preserve">
<g>
	
		<linearGradient id="SVGID_1_" gradientUnits="userSpaceOnUse" x1="-1253.9297" y1="474.6606" x2="-1239.8643" y2="479.1286" gradientTransform="matrix(1 0 0 1 1338.1055 -406.8682)">
		<stop  offset="0" style="stop-color:#000000;stop-opacity:0"/>
		<stop  offset="1" style="stop-color:#000000;stop-opacity:0.6"/>
	</linearGradient>
	<rect x="73.88" y="46.896" fill="url(#SVGID_1_)" width="20.347" height="41.715"/>
	<g>
		<g>
			<g>
				<g>
					<path fill="#FFFFFF" d="M227.639,61.919c-0.412-0.766-8.186-15.387-8.615-16.176c-0.432-0.793-1.002-1.299-1.954-1.307
						c-0.959-0.012-6.85,0-7.409,0c-0.559,0-1.072,0.312-1.072,1v0.191c0,0.729,0.563,1.012,1.072,1.012c0.511,0,1.273,0,1.273,0
						s-7.84,14.672-8.081,15.123c-0.401,0.744-0.679,1.676,0.735,1.676c0,0,1.215,0,1.227,0c0.737,0,0.891-0.279,1.193-0.846
						c0.211-0.391,1.904-3.904,1.904-3.904c0.228-0.416,0.258-0.438,0.688-0.438h11.797c0.422,0,0.471,0,0.686,0.441l1.899,3.891
						c0.204,0.412,0.495,0.855,1.29,0.855h2.377C227.83,63.439,228.06,62.703,227.639,61.919z M219.417,55.673h-9.705
						c-0.195,0-0.086-0.193-0.055-0.248c0,0,4.135-7.99,4.274-8.229c0.174-0.303,0.144-0.475,0.595-0.475
						c0.426,0,0.451,0.146,0.606,0.461c0.163,0.312,4.351,8.246,4.351,8.246C219.508,55.478,219.629,55.673,219.417,55.673z"/>
					<path fill="#FFFFFF" d="M161.543,44.437c0,0-17.303,0-17.907,0c-0.606,0-1.07,0.357-1.07,0.99c0,0.066,0,0.084,0,0.199
						c0,0.795,0.563,0.99,1.07,1.008c0.359,0.012,0.944,0,0.944,0c-0.004,0.006-0.004,13.357-0.004,14.572
						c0,1.223,0.885,2.232,2.023,2.232c1.138,0,14.013,0,14.943,0c0.928,0,1.201-0.311,1.201-1.17c0-0.201,0-0.066,0-0.33
						c0-0.809-0.228-1.16-1.201-1.16c-1.107,0-12.393,0-12.493,0c-0.128,0-0.184-0.098-0.184-0.189c0-0.049,0-5.756,0-5.832
						c0-0.084,0.079-0.184,0.184-0.184c0.101,0,8.062,0,8.952,0c1.16,0,1.236-0.492,1.236-1.156c0-0.127,0-0.191,0-0.33
						c0-0.621-0.039-1.123-1.236-1.123c0,0-8.852,0-8.952,0c-0.104,0-0.184-0.072-0.184-0.188c0-0.111,0-4.443,0-4.537
						s0.04-0.199,0.184-0.199c0.14,0,11.617,0,12.485,0c1.201,0,1.209-0.635,1.209-1.154c0-0.141,0-0.008,0-0.295
						C162.745,44.992,162.711,44.437,161.543,44.437z"/>
					<path fill="#FFFFFF" d="M198.061,44.437c0,0-3.531,0-3.982,0c-0.941,0-1.071,0.615-1.071,1.004c0,0.111,0,0.1,0,0.197
						c0,0.449,0.21,1.01,1.071,1.01c0.478,0,1.051,0,1.051,0s0,14.65,0,15.467c0,0.791,0.207,1.324,1.283,1.324
						c1.069,0,0.611,0,1.688,0c1.08,0,1.307-0.533,1.307-1.324c0-0.76,0-15.416,0-16.346
						C199.407,44.83,199.062,44.445,198.061,44.437z"/>
					<path fill="#FFFFFF" d="M135.188,44.437c0,0-3.047,0-3.943,0c-0.89,0-1.671,0.344-2.033,1.35
						c-0.383,1.066-5.084,14.6-5.109,14.639c-0.021,0.037-0.021,0.07-0.06,0.07c-0.034,0-0.041-0.023-0.055-0.051
						c-0.012-0.031-4.837-13.859-5.114-14.658c-0.288-0.799-1.174-1.348-2.037-1.35c-0.862,0-6.556,0-7.042,0
						c-0.875,0-1.076,0.525-1.076,0.965c0,0.129,0,0.115,0,0.219c0,0.436,0.231,0.998,1.076,0.998c0.431,0,1.244,0,1.244,0
						s-0.09,0-0.09,0.01c0,0-1.456,15.014-1.499,15.447c-0.11,1.084,0.222,1.363,1.046,1.363c0.333,0,0.79,0,1.204,0
						c0.707,0,0.993-0.09,1.097-1.377c0.098-1.104,1.211-14.711,1.215-14.891c0-0.311,0.1-0.412,0.324-0.412
						c0.289,0,0.311,0.07,0.444,0.424c0.116,0.332,4.827,13.826,5.193,14.885c0.36,1.055,1.308,1.371,2.031,1.371
						c0.729,0,1.872,0,2.751,0c0.877,0,1.648-0.359,2.017-1.367c0.292-0.814,5.12-14.666,5.198-14.889
						c0.107-0.303,0.172-0.424,0.419-0.424c0.315,0,0.351,0.109,0.38,0.424c0.02,0.285,1.184,14.432,1.257,15.215
						c0.062,0.797,0.416,1.041,1.169,1.041c0.758,0,1.031,0,2.12,0c0.886,0,1.13-0.375,1.06-1.121
						c-0.031-0.406-1.184-14.469-1.287-15.721C136.98,45.349,136.305,44.437,135.188,44.437z"/>
					<path fill="#FFFFFF" d="M178.339,44.437h-11.638c-0.971,0-1.076,0.643-1.076,1c0,0.127,0,0.057,0,0.191
						c0,0.506,0.206,1.012,1.076,1.012c0.465,0,0.941,0,0.941,0v0.018c0,0,0,13.402,0,14.562c0,1.158,0.885,2.219,2.025,2.219
						c1.146,0,0.161,0,8.645,0c9.558,0,11.42-3.109,11.42-9.73C189.733,47.666,187.95,44.437,178.339,44.437z M177.397,60.89h-5.273
						c-0.131,0-0.191-0.102-0.191-0.195V47.16c0-0.166,0.074-0.273,0.249-0.273c0.134,0,0.519,0,5.216,0
						c5.506,0,7.725,0.834,7.725,6.787C185.122,59.607,183.125,60.89,177.397,60.89z"/>
				</g>
			</g>
			<g>
				<path fill="#FFFFFF" d="M72.833,35.959c-0.259-2.888-1.542-3.82-4.404-4.334c-0.321-0.061-0.59-0.061-0.59-0.404
					c0-0.316,0.4-0.342,0.626-0.404c2.291-0.552,4.13-1.519,4.13-4.479c0-4.589-3.956-5.161-7.466-5.161H51.433
					c-0.445,0-1.071,0.205-1.071,1.004v0.198c0,0.802,0.625,1.004,1.071,1.004h0.943v15.466c0.011,0.975,0.334,1.322,1.286,1.328
					h1.753c0.903-0.006,1.28-0.373,1.28-1.328v-6.094c0-0.088,0.069-0.192,0.195-0.188l6.122,0.146
					c2.022,0.121,5.131,0.182,5.299,2.86l0.176,3.297c0.079,0.963,0.438,1.301,1.371,1.307h1.75c0.865,0,1.421-0.35,1.402-1.195
					L72.833,35.959z M62.871,30.069l-6.01,0.17c-0.101,0-0.187-0.051-0.187-0.181v-6.204c0-0.111,0.083-0.195,0.187-0.195h7.328
					c3.353,0,3.823,1.325,3.856,3.172C68.108,29.914,65.204,29.993,62.871,30.069z"/>
				<path fill="#FFFFFF" d="M205.993,38.8c-0.426-0.395-9.535-8.881-9.535-8.881l8.504-7.491c0.461-0.431,0.332-1.269-0.602-1.251
					c0,0-1.812,0-2.096,0c-0.453,0-0.652,0.121-0.924,0.363c-0.658,0.58-7.918,7.17-8.166,7.369
					c-0.342,0.271-0.498,0.34-1.502,0.412c-1.09,0.072-1.678,0.083-1.783,0.083s-0.175-0.062-0.175-0.186c0-0.128,0-5.799,0-6.713
					c0-0.911-0.407-1.329-1.316-1.329c-0.907,0-3.945,0-3.945,0c-0.922,0-1.071,0.748-1.071,0.999c0,0.061,0,0.086,0,0.195
					c0,0.438,0.149,1.005,1.071,1.005c0.453,0,0.944,0,0.944,0s0,14.756,0,15.475c0,0.721,0.271,1.326,1.283,1.326
					c0.658,0,1.176,0,1.748,0c0.89,0,1.286-0.373,1.286-1.326c0-0.955,0-6.701,0-6.807c0-0.112,0.019-0.224,0.175-0.229
					c0.157-0.004,1.327,0.038,1.904,0.067c0.771,0.045,1.169,0.091,1.519,0.436c0.255,0.253,5.584,5.683,7.136,7.273
					c0.412,0.42,0.617,0.586,1.329,0.586c0.013,0,3.604,0,3.604,0C206.317,40.177,206.559,39.335,205.993,38.8z"/>
				<path fill="#FFFFFF" d="M18.825,30.604c-0.335-0.061-0.606-0.088-0.606-0.391c0-0.337,0.309-0.36,0.606-0.419
					c3.106-0.588,4.062-1.974,4.062-3.922c0-1.781-0.418-4.696-7.258-4.696H1.067C0.647,21.177,0,21.382,0,22.176v0.203
					c0,0.802,0.653,0.997,1.067,0.997c0.421,0,0.948,0,0.948,0c0,0.009,0,13.34,0,14.583c0,1.346,0.923,2.219,2.203,2.219h10.938
					c7.9,0,8.528-3.152,8.528-4.99C23.686,31.463,20.926,30.977,18.825,30.604z M6.297,23.812c0-0.113,0.09-0.19,0.198-0.181
					c0.113,0,5.035,0,8.331,0c3.299,0,3.477,1.504,3.477,2.734c0,2.213-1.819,2.62-4.088,2.765
					c-2.276,0.139-7.603,0.258-7.719,0.258c-0.119,0.009-0.198-0.061-0.198-0.18V23.812z M14.648,37.73H6.495
					c-0.143,0-0.198-0.111-0.198-0.207v-5.804c0-0.101,0.079-0.178,0.198-0.18c0.113-0.005,4.048,0.025,7.781,0.221
					c3.974,0.214,4.768,1.047,4.768,3.098C19.043,37.619,16.227,37.73,14.648,37.73z"/>
				<path fill="#FFFFFF" d="M45.972,21.177c0,0-17.303,0-17.905,0c-0.606,0-1.073,0.373-1.073,1.004c0,0.065,0,0.081,0,0.198
					c0,0.795,0.565,0.987,1.073,1.004c0.356,0.012,0.941,0,0.941,0c0,0.002,0,13.361,0,14.576c0,1.219,0.88,2.219,2.023,2.219
					c1.138,0,14.015,0,14.941,0c0.924,0,1.197-0.295,1.197-1.16c0-0.193,0-0.062,0-0.332c0-0.805-0.223-1.154-1.197-1.154
					c-1.107,0-12.396,0.004-12.499,0c-0.122-0.004-0.183-0.102-0.183-0.195c0-0.041,0-5.75,0-5.832c0-0.081,0.083-0.176,0.183-0.176
					c0.102,0,8.068,0,8.958,0c1.158,0,1.243-0.496,1.229-1.165c0-0.126,0-0.191,0-0.328c0-0.616-0.038-1.125-1.229-1.125
					c0,0-8.855,0-8.958,0c-0.1,0-0.183-0.075-0.183-0.187s0-4.445,0-4.538c0-0.091,0.049-0.195,0.183-0.195
					c0.141,0,11.617,0,12.491,0c1.201,0,1.205-0.64,1.205-1.153c0-0.142,0-0.005,0-0.298C47.169,21.739,47.143,21.177,45.972,21.177
					z"/>
				<path fill="#FFFFFF" d="M226.637,21.177c0,0-17.301,0-17.908,0c-0.602,0-1.071,0.373-1.071,1.004c0,0.065,0,0.081,0,0.198
					c0,0.795,0.561,0.987,1.071,1.004c0.359,0.012,0.941,0,0.941,0c0,0.002,0,13.361,0,14.576c0,1.219,0.883,2.219,2.022,2.219
					c1.138,0,14.018,0,14.944,0c0.928,0,1.201-0.295,1.201-1.16c0-0.193,0-0.062,0-0.332c0-0.805-0.229-1.154-1.201-1.154
					c-1.11,0-12.393,0.004-12.497,0c-0.123-0.004-0.18-0.102-0.18-0.195c0-0.041,0-5.75,0-5.832c0-0.081,0.079-0.176,0.18-0.176
					c0.103,0,8.063,0,8.954,0c1.164,0,1.243-0.496,1.234-1.165c0-0.126,0-0.191,0-0.328c0-0.616-0.04-1.125-1.234-1.125
					c0,0-8.85,0-8.954,0c-0.101,0-0.18-0.075-0.18-0.187s0-4.445,0-4.538c0-0.091,0.045-0.195,0.18-0.195c0.142,0,11.616,0,12.487,0
					c1.202,0,1.211-0.64,1.211-1.153c0-0.142,0-0.005,0-0.298C227.838,21.739,227.803,21.177,226.637,21.177z"/>
				<path fill="#FFFFFF" d="M94.148,37.466c-1.174,0-11.005,0-11.107,0c-0.104,0-0.172-0.07-0.172-0.191s0-14.19,0-14.764
					c0-0.805-0.183-1.334-1.267-1.334c-1.079,0-3.491,0-3.991,0c-0.826,0-1.073,0.572-1.073,1.004c0,0.138,0,0.086,0,0.198
					c0,0.532,0.343,1.006,1.073,1.006c0.402,0,0.941,0,0.941,0s0,13.421,0,14.574c0,1.244,0.941,2.219,2.021,2.219
					c1.002,0,12.736,0,13.61,0c1.101,0,1.196-0.424,1.196-1.16c0-0.332-0.001-0.166-0.001-0.43
					C95.379,37.919,95.3,37.466,94.148,37.466z"/>
				<path fill="#FFFFFF" d="M100.835,21.177c0,0-3.536,0-3.985,0c-0.943,0-1.073,0.613-1.073,1.004c0,0.116,0,0.098,0,0.198
					c0,0.448,0.213,1.006,1.073,1.006c0.474,0,1.051,0,1.051,0s0,14.658,0,15.466c0,0.795,0.211,1.326,1.282,1.326
					c1.073,0,0.616,0,1.69,0c1.072,0,1.307-0.531,1.307-1.326c0-0.758,0-15.415,0-16.345
					C102.18,21.567,101.829,21.188,100.835,21.177z"/>
				<path fill="#FFFFFF" d="M129.163,21.177c-0.645,0-0.395,0-1.064,0c-0.8,0-1.136,0.246-1.136,1.334
					c0,1.047,0.089,14.737,0.089,14.87c0,0.248-0.028,0.395-0.28,0.395c-0.188,0-0.279-0.146-0.466-0.42
					c-0.184-0.266-9.154-14.297-9.668-15.093c-0.525-0.8-1.133-1.085-1.977-1.085c-0.848,0-6.303,0-6.802,0
					c-0.843,0-1.071,0.535-1.071,0.967c0,0.135,0,0.037,0,0.195c0,0.591,0.325,1.005,1.071,1.005c0.444,0,0.945,0,0.945,0
					c-0.003,0.019-0.094,14.542-0.094,15.439c0,1.08,0.289,1.395,1.136,1.395c0.554,0,0.409,0,0.985,0
					c0.838,0,1.103-0.307,1.103-1.395c0-0.932-0.044-14.667-0.044-14.868c0-0.32,0.037-0.397,0.284-0.397
					c0.166,0,0.305,0.175,0.442,0.389c0.135,0.216,9.206,14.425,9.69,15.177c0.482,0.758,1.186,1.111,2.038,1.111
					c0.856,0,2.551-0.018,3.808-0.018c1.256,0,1.988-0.855,1.988-2.219c0-1.357,0.092-14.419,0.092-15.453
					C130.231,21.423,129.91,21.177,129.163,21.177z"/>
				<path fill="#FFFFFF" d="M154.446,29.342c-0.694,0-5.059,0.101-6.021,0.101c-1.236,0-1.275,0.667-1.275,1.216
					c0,0.251,0,0.121,0,0.369c0,0.742,0.066,1.1,1.273,1.187c0.887,0.067,2.939,0.188,3.083,0.199
					c0.288,0.026,0.313,0.114,0.313,0.495c0,0.188,0,4.478,0,4.556c-0.004,0.113-0.004,0.246-0.181,0.275
					c-1.151,0.18-2.958,0.283-4.679,0.283c-5.047,0-7.623-1.328-7.623-7.506c0-6.127,3.106-7.029,8.401-7.029
					c2.187,0,4.296,0.242,7.214,0.577c0.35,0.039,0.807,0.007,0.854-0.586c0.058-0.656,0.074-1.114,0.074-1.182
					c0.012-0.548-0.379-0.729-0.654-0.771c-1.58-0.275-3.701-0.703-8.516-0.703c-10.816,0-12.004,5.789-12.004,9.704
					c0,8.427,4.537,9.97,12.539,9.97c2.34,0,4.807-0.162,7.004-0.668c1.711-0.383,1.891-1.137,1.891-3.158c0-0.807,0-4.06,0-5.516
					C156.139,29.705,155.137,29.337,154.446,29.342z"/>
				<path fill="#FFFFFF" d="M164.571,25.949c0-1.238,0.425-2.546,6.031-2.395c3.146,0.077,4.336,0.284,7.501,0.742
					c0,0,0.747,0.15,0.879-0.586c0,0,0.148-1.251,0.153-1.372c0-0.307-0.209-0.666-0.685-0.744c-1.447-0.256-4.673-0.738-7.97-0.738
					c-5.176,0-9.986,0.502-9.986,5.542c0,4.534,2.311,5.478,9.682,6.185c5.277,0.517,5.858,0.556,5.858,2.595
					c0,2.441-2.706,2.781-6.327,2.613c-3.811-0.166-8.232-1.074-8.232-1.074s-0.692-0.111-0.833,0.586c0,0-0.167,1.48-0.181,1.539
					c-0.066,0.549,0.456,0.73,0.752,0.809c0.29,0.086,5.698,0.811,8.051,0.848c2.902,0.059,10.911,0.828,10.911-5.917
					c0-5.945-5.679-5.689-9.292-6.117C167.03,28.008,164.571,28.412,164.571,25.949z"/>
			</g>
		</g>
		<g>
			<g>
				<g>
					<path fill="#ABE1FA" d="M16.756,14.133c-0.231,0.288-0.404,0.181-0.783-0.089c-0.38-0.288-0.51-0.446-0.278-0.758l0.68-0.849
						c0.295-0.355,0.188-0.512-0.086-0.688c-1.375-0.846-1.673-2.118-1.673-3.72c0-2.565,0.551-4.615,6.12-4.615
						c0.995,0,1.609,0.111,2.268,0.199c0.229,0.023,0.377-0.021,0.569-0.266l1.125-1.427c0.23-0.312,0.399-0.182,0.759,0.091
						c0.383,0.265,0.529,0.444,0.297,0.732l-0.658,0.848c-0.295,0.377-0.212,0.514,0.086,0.691c1.376,0.869,1.673,2.116,1.673,3.746
						c0,2.56-0.551,4.587-6.121,4.587c-1.016,0-1.63-0.111-2.268-0.179c-0.229-0.023-0.377,0-0.57,0.246L16.756,14.133z
						 M22.136,5.215c0.232-0.283,0.146-0.532-0.214-0.598c-0.339-0.069-0.718-0.092-1.186-0.092c-2.899,0-3.154,1.295-3.154,3.479
						c0,0.69,0.041,1.313,0.276,1.92c0.103,0.266,0.315,0.377,0.548,0.089L22.136,5.215z M23.89,8.004
						c0-0.691-0.061-1.268-0.273-1.872c-0.108-0.291-0.323-0.378-0.554-0.091l-3.725,4.769c-0.232,0.312-0.149,0.537,0.213,0.603
						c0.339,0.072,0.718,0.114,1.185,0.114C23.64,11.526,23.89,10.189,23.89,8.004z"/>
					<path fill="#ABE1FA" d="M30.816,12.37c-1.186,0-1.333-0.268-1.333-1.111V1.14c0-0.867,0.125-1.14,1.293-1.14h0.229
						c1.187,0,1.333,0.272,1.333,1.14v10.119c0,0.844-0.125,1.111-1.292,1.111H30.816z"/>
					<path fill="#ABE1FA" d="M36.916,15.714c-0.513-0.089-0.594-0.154-0.594-0.732c0-0.626,0.189-0.717,0.657-0.668
						c0.528,0.065,1.988,0.312,3.935,0.312c1.949,0,3.009-0.111,3.009-1.604v-0.606c0-0.444-0.257-0.509-0.534-0.488
						c-0.231,0.021-1.226,0.156-2.475,0.156c-4.742,0-5.95-1.247-5.95-4.32c0-3.061,1.102-4.348,6.058-4.348
						c1.987,0,3.62,0.223,4.359,0.379c1.272,0.287,1.4,0.871,1.4,1.76v6.799c0,3.118-1.971,3.655-5.546,3.655
						C39.092,16.007,37.399,15.783,36.916,15.714z M43.477,10.7c0.212-0.046,0.445-0.09,0.445-0.443V5.24
						c0-0.381-0.233-0.402-0.445-0.445c-0.211-0.043-1.271-0.203-2.437-0.203c-2.265,0-3.088,0.402-3.088,3.142
						c0,2.744,0.848,3.144,3.088,3.144C42.207,10.877,43.266,10.747,43.477,10.7z"/>
					<path fill="#ABE1FA" d="M74.134,11.259c0,0.844-0.128,1.111-1.294,1.111h-0.231c-1.185,0-1.336-0.268-1.336-1.111V6.625
						c0-1.719-0.885-1.984-2.454-1.984c-0.784,0-1.776,0.089-2.539,0.266c-0.276,0.067-0.445,0.202-0.445,0.6v5.753
						c0,0.844-0.129,1.111-1.294,1.111h-0.232c-1.184,0-1.334-0.268-1.334-1.111V6.625c0-1.719-0.886-1.984-2.454-1.984
						c-0.785,0-1.777,0.089-2.539,0.266c-0.276,0.067-0.445,0.202-0.445,0.6v5.753c0,0.844-0.128,1.111-1.292,1.111h-0.236
						c-1.185,0-1.331-0.268-1.331-1.111V5.152c0-0.734,0.125-1.072,1.694-1.359c1.058-0.201,2.773-0.379,4.296-0.379
						c1.228,0,2.224,0.199,2.711,0.398c0.847,0.312,0.953,0.38,1.989,0.092c0.954-0.244,2.203-0.49,3.411-0.49
						c4.507,0,5.355,0.955,5.355,3.366V11.259z"/>
					<path fill="#ABE1FA" d="M76.654,8.004c0-2.941,0.888-4.613,6.013-4.613c3.728,0,5.933,0.934,5.95,4.034
						c0,0.916-0.125,1.202-1.61,1.202h-6.901c-0.277,0-0.485,0.067-0.485,0.492c0,2.002,1.838,2.074,4.063,2.074
						c1.312,0,3.072-0.204,3.388-0.249c0.488-0.067,0.677-0.041,0.677,0.582c0,0.576-0.086,0.669-0.614,0.755
						c-0.212,0.045-1.8,0.293-3.897,0.293C78.159,12.574,76.654,11.305,76.654,8.004z M85.103,7.425
						c0.297,0,0.507-0.091,0.507-0.488c0-1.766-0.76-2.362-2.964-2.362c-2.182,0-2.964,0.555-2.964,2.362
						c0,0.397,0.214,0.488,0.51,0.488H85.103z"/>
					<path fill="#ABE1FA" d="M90.612,8.004c0-3.166,0.971-4.59,5.881-4.59c1.016,0,1.863,0.066,2.562,0.129
						c0.275,0.025,0.512-0.018,0.512-0.441V1.14c0-0.867,0.125-1.14,1.268-1.14h0.232c1.207,0,1.354,0.272,1.354,1.14v9.805
						c0,0.737-0.126,1.114-1.606,1.363c-0.934,0.15-2.481,0.285-4.15,0.285C91.688,12.593,90.612,11.17,90.612,8.004z
						 M99.118,11.217c0.212-0.047,0.449-0.096,0.449-0.47V5.262c0-0.379-0.236-0.441-0.449-0.49c-0.209-0.042-1.27-0.18-2.434-0.18
						c-2.263,0-3.089,0.537-3.089,3.412c0,2.873,0.826,3.408,3.089,3.408C97.849,11.412,98.909,11.259,99.118,11.217z"/>
					<path fill="#ABE1FA" d="M107.524,7.822c-1.203,0-1.354-0.261-1.354-1.109l-0.065-5.573c0-0.867,0.151-1.14,1.294-1.14h0.232
						c1.206,0,1.333,0.272,1.333,1.14l-0.061,5.573c0,0.849-0.131,1.109-1.273,1.109H107.524z M106.13,10.789
						c0-1.581,0.191-1.651,1.418-1.651c1.225,0,1.417,0.07,1.417,1.651c0,1.492-0.192,1.581-1.417,1.581
						C106.321,12.37,106.13,12.281,106.13,10.789z"/>
				</g>
			</g>
			<path fill="#ABE1FA" d="M14.151,0c0,0-12.467,0-12.744,0c-0.58,0-0.663,0.402-0.663,0.656c0,0.072,0,0.061,0,0.123
				c0,0.293,0.131,0.658,0.663,0.658c0.295,0,0.649,0,0.649,0l-0.003,9.707c0,0.958,0.157,1.226,1.447,1.226h0.256
				c1.206,0,1.374-0.268,1.374-1.226V8.004c0-0.47,0.211-0.691,0.679-0.691h5.905c0.511,0,0.616-0.199,0.616-0.804
				c0-0.512-0.105-0.755-0.616-0.755H5.809c-0.491,0-0.679-0.225-0.679-0.691v-2.83c0-0.47,0.211-0.69,0.679-0.69h8.342
				c0.506,0,0.634-0.175,0.634-0.783C14.785,0.247,14.657,0,14.151,0z"/>
		</g>
	</g>
</g>
</svg>
