<?xml version="1.0" encoding="utf-8"?>
<!-- Generator: Adobe Illustrator 16.0.0, SVG Export Plug-In . SVG Version: 6.00 Build 0)  -->
<!DOCTYPE svg PUBLIC "-//W3C//DTD SVG 1.1//EN" "http://www.w3.org/Graphics/SVG/1.1/DTD/svg11.dtd">
<svg version="1.1" id="Layer_1" xmlns="http://www.w3.org/2000/svg" xmlns:xlink="http://www.w3.org/1999/xlink" x="0px" y="0px"
	 width="400px" height="21.392px" viewBox="0 0 400 21.392" enable-background="new 0 0 400 21.392" xml:space="preserve">
<g>
	<path fill="#FFFFFF" d="M399.782,19.736c-0.464-0.849-9.186-17.009-9.664-17.883c-0.487-0.873-1.122-1.435-2.194-1.446
		c-1.073-0.011-7.686,0-8.312,0c-0.628,0-1.202,0.342-1.202,1.104v0.217c0,0.805,0.631,1.114,1.202,1.114c0.574,0,1.427,0,1.427,0
		s-8.796,16.226-9.069,16.722c-0.445,0.828-0.758,1.852,0.822,1.852c0,0,1.369,0,1.382,0c0.831,0,1.004-0.306,1.336-0.93
		c0.231-0.435,2.141-4.316,2.141-4.316c0.258-0.465,0.285-0.488,0.769-0.488h13.24c0.469,0,0.523,0,0.768,0.488l2.133,4.303
		c0.232,0.452,0.558,0.939,1.443,0.939h2.673C399.998,21.411,400.257,20.604,399.782,19.736z M390.555,12.825h-10.884
		c-0.224,0-0.1-0.205-0.067-0.272c0,0,4.644-8.831,4.802-9.094c0.189-0.329,0.156-0.522,0.667-0.522c0.475,0,0.5,0.162,0.685,0.509
		c0.176,0.344,4.878,9.116,4.878,9.116C390.656,12.62,390.793,12.825,390.555,12.825z"/>
	<path fill="#FFFFFF" d="M344.458,0.407h-13.063c-1.089,0-1.203,0.715-1.203,1.104c0,0.146,0,0.067,0,0.218
		c0,0.551,0.234,1.115,1.203,1.115c0.521,0,1.062,0,1.062,0v0.018c0,0,0,14.824,0,16.104c0,1.275,0.991,2.449,2.273,2.449
		c1.281,0,0.178,0,9.701,0c10.721,0,12.812-3.437,12.812-10.757C357.247,3.98,355.242,0.407,344.458,0.407z M343.401,18.597h-5.92
		c-0.144,0-0.212-0.107-0.212-0.213V3.415c0-0.18,0.081-0.296,0.279-0.296c0.146-0.002,0.586,0,5.853,0
		c6.179,0,8.67,0.92,8.67,7.504C352.071,17.183,349.829,18.597,343.401,18.597z"/>
	<path fill="#FFFFFF" d="M81.733,16.724c-0.291-3.191-1.729-4.224-4.938-4.793c-0.364-0.066-0.666-0.076-0.666-0.443
		c0-0.347,0.447-0.38,0.702-0.447c2.571-0.611,4.633-1.682,4.633-4.955c0-5.073-4.435-5.704-8.373-5.704H57.718
		c-0.5,0-1.204,0.229-1.204,1.105v0.216c0,0.891,0.702,1.117,1.204,1.117h1.062v17.1c0.007,1.077,0.371,1.46,1.44,1.468h1.967
		c1.014-0.006,1.44-0.411,1.44-1.468v-6.743c0-0.095,0.074-0.207,0.218-0.207l6.873,0.161c2.264,0.137,5.754,0.2,5.942,3.162
		l0.2,3.647c0.087,1.068,0.491,1.445,1.539,1.445h1.969c0.969,0,1.587-0.388,1.571-1.318L81.733,16.724z M70.553,10.208
		l-6.742,0.196c-0.118,0-0.211-0.064-0.211-0.204V3.342c0-0.125,0.091-0.216,0.206-0.216h8.224c3.764,0,4.292,1.469,4.331,3.507
		C76.431,10.035,73.171,10.124,70.553,10.208z"/>
	<path fill="#FFFFFF" d="M21.124,10.808c-0.376-0.066-0.676-0.1-0.676-0.428c0-0.376,0.347-0.407,0.68-0.469
		c3.485-0.649,4.554-2.184,4.554-4.334c0-1.969-0.463-5.189-8.14-5.189H1.202C0.724,0.386,0,0.613,0,1.489v0.216
		C0,2.6,0.734,2.822,1.204,2.822s1.06,0,1.06,0V18.94c0,1.486,1.035,2.449,2.478,2.449h12.269c8.869,0,9.575-3.484,9.575-5.514
		C26.583,11.761,23.482,11.218,21.124,10.808z M7.073,3.302c0-0.124,0.098-0.212,0.22-0.209c0.124,0,5.645,0,9.347,0
		c3.7,0,3.9,1.669,3.9,3.031c0,2.444-2.037,2.895-4.589,3.055C13.4,9.336,7.427,9.46,7.293,9.465
		c-0.135,0.004-0.22-0.071-0.22-0.196V3.302z M16.44,18.684H7.293c-0.16,0-0.22-0.114-0.22-0.231v-6.416
		c0-0.112,0.087-0.192,0.214-0.196c0.129-0.003,4.547,0.031,8.733,0.253c4.458,0.23,5.353,1.156,5.353,3.414
		C21.373,18.558,18.214,18.684,16.44,18.684z"/>
	<path fill="#FFFFFF" d="M325.614,0.411c0,0-19.42,0-20.1,0c-0.675,0-1.204,0.398-1.204,1.098c0,0.076,0,0.091,0,0.216
		c0,0.884,0.637,1.095,1.204,1.114c0.405,0.013,1.062,0,1.062,0c-0.004,0.006-0.004,14.766-0.004,16.116
		c0,1.348,0.991,2.463,2.27,2.463s15.728,0,16.772,0c1.038,0,1.342-0.342,1.342-1.295c0-0.221,0-0.071,0-0.365
		c0-0.895-0.252-1.277-1.342-1.277c-1.247,0-13.905,0-14.025,0c-0.142-0.003-0.205-0.11-0.205-0.216c0-0.051,0-6.354,0-6.445
		c0-0.093,0.091-0.204,0.205-0.204c0.115,0,9.048,0,10.048,0c1.304,0,1.393-0.538,1.385-1.276c0-0.142,0-0.214,0-0.363
		c0-0.684-0.045-1.242-1.385-1.242c0,0-9.933,0-10.048,0c-0.114,0-0.205-0.084-0.205-0.209s0-4.911,0-5.014
		c0-0.104,0.049-0.217,0.205-0.217c0.155,0,13.035,0,14.015,0c1.35,0,1.353-0.71,1.353-1.276c0-0.156,0-0.011,0-0.329
		C326.956,1.022,326.922,0.411,325.614,0.411z"/>
	<path fill="#FFFFFF" d="M366.589,0.415c0,0-3.965,0-4.469,0c-1.055,0-1.204,0.682-1.204,1.111c0,0.124,0,0.113,0,0.218
		c0,0.495,0.242,1.115,1.204,1.115c0.538,0,1.178,0,1.178,0s0,16.203,0,17.1c0,0.879,0.235,1.462,1.438,1.462c1.204,0,0.689,0,1.9,0
		s1.467-0.581,1.467-1.462c0-0.84,0-17.042,0-18.072C368.104,0.853,367.713,0.426,366.589,0.415z"/>
	<path fill="#FFFFFF" d="M296.021,0.418c0,0-3.42,0-4.42,0c-1.002,0-1.873,0.376-2.287,1.493
		c-0.431,1.176-5.709,16.146-5.729,16.184c-0.025,0.04-0.025,0.08-0.068,0.08c-0.037,0-0.047-0.031-0.062-0.064
		c-0.016-0.03-5.426-15.321-5.738-16.201c-0.32-0.882-1.322-1.489-2.284-1.491c-0.968-0.006-7.354,0-7.909,0
		c-0.98,0-1.199,0.582-1.199,1.063c0,0.146,0,0.133,0,0.246c0,0.48,0.258,1.111,1.199,1.111c0.492,0,1.402,0,1.402,0
		s-0.102,0-0.102,0.001c0,0-1.635,16.607-1.688,17.084c-0.12,1.198,0.252,1.503,1.174,1.503c0.373,0,0.888,0,1.35,0
		c0.795,0,1.118-0.104,1.24-1.516c0.1-1.229,1.353-16.271,1.354-16.464c0.006-0.345,0.115-0.462,0.364-0.462
		c0.329,0,0.347,0.078,0.495,0.471c0.134,0.369,5.42,15.289,5.83,16.457c0.411,1.169,1.469,1.514,2.28,1.514
		c0.816,0,2.102,0,3.087,0c0.986,0,1.855-0.397,2.262-1.507c0.328-0.899,5.738-16.22,5.833-16.467
		c0.122-0.336,0.189-0.467,0.473-0.467c0.353,0,0.395,0.118,0.421,0.467c0.026,0.315,1.33,15.957,1.408,16.83
		c0.076,0.871,0.473,1.144,1.322,1.144c0.849,0,1.152,0,2.378,0c0.995,0,1.262-0.413,1.19-1.237c-0.037-0.454-1.325-16-1.449-17.379
		C298.04,1.424,297.285,0.418,296.021,0.418z"/>
	<path fill="#FFFFFF" d="M220.469,10.055l9.549-8.284c0.516-0.48,0.366-1.405-0.674-1.384c0,0-2.035,0-2.358,0
		c-0.5,0-0.731,0.135-1.032,0.398c-0.734,0.644-8.883,7.929-9.162,8.147c-0.384,0.298-0.562,0.378-1.691,0.455
		c-1.22,0.085-1.881,0.098-1.998,0.098c-0.116,0-0.196-0.071-0.196-0.207s0-6.409,0-7.42c0-1.011-0.45-1.469-1.474-1.469
		c-1.024,0-4.434,0-4.434,0c-1.031,0-1.203,0.826-1.203,1.104c0,0.077,0,0.095,0,0.218c0,0.485,0.174,1.113,1.203,1.113
		c0.504,0,1.062,0,1.062,0s0,16.311,0,17.111c0,0.793,0.298,1.457,1.434,1.457c0.744,0,1.326,0,1.971,0
		c0.992,0,1.439-0.406,1.439-1.457c0-1.057-0.004-7.416,0-7.531c0-0.117,0.028-0.25,0.199-0.254c0.18,0,1.485,0.039,2.131,0.074
		c0.871,0.044,1.32,0.1,1.705,0.482c0.287,0.281,6.264,6.287,8.012,8.039c0.461,0.464,0.686,0.645,1.488,0.645
		c0.016,0,4.041,0,4.041,0c1.055,0,1.325-0.93,0.688-1.514C230.693,19.437,220.469,10.055,220.469,10.055z"/>
	<path fill="#FFFFFF" d="M51.589,0.393c0,0-19.416,0-20.094,0s-1.204,0.406-1.204,1.105c0,0.077,0,0.095,0,0.217
		c0,0.883,0.633,1.098,1.204,1.118c0.403,0.013,1.058,0,1.058,0c0,0.003,0,14.768,0,16.114c0,1.351,0.991,2.449,2.271,2.449
		c1.278,0,15.727,0,16.765,0c1.042,0,1.348-0.327,1.348-1.28c0-0.218,0-0.068,0-0.363c0-0.895-0.255-1.276-1.348-1.276
		c-1.244,0-13.905,0.003-14.021,0c-0.142-0.004-0.206-0.112-0.206-0.216c0-0.052,0-6.357,0-6.447s0.091-0.203,0.206-0.203
		c0.114,0,9.049,0,10.049,0c1.304,0,1.393-0.538,1.384-1.274c-0.002-0.142,0-0.216,0-0.364c0-0.682-0.043-1.244-1.384-1.244
		c0,0-9.933,0-10.049,0c-0.117,0-0.206-0.082-0.206-0.207c0-0.124,0-4.915,0-5.015c0-0.105,0.051-0.214,0.206-0.214
		c0.154,0,13.036,0,14.016,0c1.347,0,1.354-0.711,1.354-1.284c0-0.151,0-0.005,0-0.327C52.937,1.015,52.904,0.393,51.589,0.393z"/>
	<path fill="#FFFFFF" d="M254.34,0.396c0,0-19.422,0-20.096,0c-0.679,0-1.204,0.405-1.204,1.105c0,0.076,0,0.095,0,0.216
		c0,0.884,0.633,1.098,1.204,1.118c0.401,0.013,1.058,0,1.058,0C235.3,2.84,235.3,17.603,235.3,18.951s0.993,2.447,2.27,2.447
		c1.278,0,15.729,0,16.769,0c1.04,0,1.346-0.327,1.346-1.28c0-0.219,0-0.068,0-0.363c0-0.895-0.254-1.276-1.346-1.276
		c-1.245,0-13.903,0.003-14.021,0c-0.146-0.004-0.205-0.112-0.205-0.215c0-0.051,0-6.358,0-6.449c0-0.087,0.089-0.202,0.205-0.202
		c0.113,0,9.049,0,10.045,0c1.305,0,1.393-0.538,1.386-1.274c0-0.142,0-0.216,0-0.364c0-0.682-0.042-1.242-1.386-1.242
		c0,0-9.932,0-10.045,0c-0.116,0-0.205-0.083-0.205-0.211c0-0.124,0-4.915,0-5.013c0-0.105,0.049-0.215,0.205-0.215
		c0.154,0,13.036,0,14.015,0c1.347,0,1.353-0.71,1.353-1.282c0-0.151,0-0.009,0-0.329C255.684,1.017,255.646,0.396,254.34,0.396z"/>
	<path fill="#FFFFFF" d="M105.649,18.405c-1.312,0-12.342,0-12.456,0c-0.117,0-0.198-0.078-0.198-0.211c0-0.129,0-15.69,0-16.32
		c0-0.896-0.206-1.476-1.418-1.476c-1.212,0-3.918,0-4.481,0c-0.927,0-1.204,0.633-1.204,1.109c0,0.151,0,0.096,0,0.218
		c0,0.593,0.383,1.114,1.204,1.114c0.453,0,1.056,0,1.056,0s0,14.835,0,16.116c0,1.371,1.06,2.445,2.273,2.445
		c1.124,0,14.292,0,15.272,0c1.233,0,1.34-0.469,1.34-1.279c0-0.367-0.001-0.178-0.001-0.473
		C107.035,18.903,106.947,18.405,105.649,18.405z"/>
	<path fill="#FFFFFF" d="M113.153,0.404c0,0-3.965,0-4.471,0c-1.054,0-1.204,0.682-1.204,1.111c0,0.124,0,0.109,0,0.214
		c0,0.493,0.24,1.115,1.204,1.115c0.537,0,1.18,0,1.18,0s0,16.207,0,17.104c0,0.876,0.234,1.456,1.44,1.456s0.689,0,1.898,0
		c1.209,0,1.465-0.578,1.465-1.456c0-0.84,0-17.045,0-18.073C114.662,0.838,114.274,0.417,113.153,0.404z"/>
	<path fill="#FFFFFF" d="M144.945,0.413c-0.724,0-0.44,0-1.202,0c-0.895,0-1.269,0.278-1.269,1.477c0,1.155,0.1,16.29,0.1,16.432
		c0,0.281-0.033,0.439-0.316,0.439c-0.208,0-0.311-0.155-0.518-0.459C141.533,18,131.465,2.487,130.884,1.609
		c-0.578-0.884-1.262-1.198-2.211-1.198c-0.949,0-7.073,0-7.637,0c-0.947,0-1.202,0.594-1.202,1.069c0,0.151,0,0.042,0,0.216
		c0,0.655,0.369,1.115,1.202,1.115c0.502,0,1.06,0,1.06,0c0,0.02-0.102,16.079-0.102,17.069c0,1.189,0.318,1.533,1.271,1.533
		c0.62,0,0.461,0,1.107,0c0.94,0,1.238-0.336,1.238-1.533c0-1.031-0.047-16.218-0.047-16.44c0-0.353,0.035-0.436,0.314-0.436
		c0.188,0,0.348,0.191,0.497,0.427c0.149,0.238,10.331,15.945,10.875,16.778c0.544,0.835,1.326,1.233,2.286,1.233
		c0.958,0,2.86-0.027,4.271-0.027c1.411,0,2.234-0.947,2.234-2.447c0-1.502,0.096-15.944,0.096-17.084
		C146.142,0.689,145.784,0.413,144.945,0.413z"/>
	<path fill="#FFFFFF" d="M173.324,9.418c-0.776,0-5.671,0.109-6.749,0.111c-1.387,0.005-1.435,0.742-1.435,1.344
		c0,0.282,0,0.14,0,0.409c0,0.826,0.073,1.215,1.423,1.315c0.999,0.07,3.298,0.207,3.46,0.217c0.324,0.026,0.355,0.132,0.355,0.551
		c0,0.209,0.001,4.95,0,5.037c-0.004,0.123-0.004,0.271-0.206,0.303c-1.288,0.195-3.318,0.318-5.248,0.318
		c-5.671,0-8.565-1.473-8.565-8.306c0-6.771,3.495-7.765,9.442-7.765c2.447,0,4.813,0.271,8.091,0.636
		c0.391,0.043,0.904,0.009,0.958-0.651c0.065-0.726,0.08-1.222,0.082-1.306c0.015-0.604-0.422-0.8-0.731-0.853
		C172.424,0.475,170.047,0,164.646,0c-12.144,0-13.478,6.398-13.478,10.733c0,9.313,5.085,11.026,14.078,11.026
		c2.631,0,5.393-0.188,7.86-0.738c1.918-0.434,2.116-1.255,2.116-3.495c0-0.891,0-4.496,0-6.099
		C175.222,9.826,174.1,9.415,173.324,9.418z"/>
	<path fill="#FFFFFF" d="M191.773,8.453c-4.324-0.5-7.084-0.056-7.084-2.78c0-1.371,0.475-2.813,6.768-2.651
		c3.531,0.091,4.862,0.318,8.416,0.822c0,0,0.838,0.171,0.989-0.642c0,0,0.164-1.384,0.168-1.52c0.004-0.34-0.234-0.744-0.764-0.829
		c-1.629-0.273-5.248-0.811-8.946-0.811c-5.811,0-11.209,0.556-11.209,6.136c0,5.004,2.593,6.045,10.866,6.834
		c5.927,0.564,6.578,0.609,6.578,2.867c0,2.695-3.038,3.069-7.1,2.893c-4.278-0.188-9.242-1.192-9.242-1.192
		s-0.782-0.122-0.933,0.646c0,0-0.194,1.641-0.204,1.705c-0.074,0.611,0.511,0.805,0.84,0.895c0.329,0.092,6.398,0.896,9.036,0.94
		c3.256,0.056,12.244,0.911,12.244-6.55C202.2,8.636,195.826,8.922,191.773,8.453z"/>
</g>
</svg>
