<?xml version="1.0" encoding="utf-8"?>
<!DOCTYPE svg PUBLIC "-//W3C//DTD SVG 1.1//EN"
        "http://www.w3.org/Graphics/SVG/1.1/DTD/svg11.dtd" [
        <!ENTITY ns_extend "http://ns.adobe.com/Extensibility/1.0/">
        <!ENTITY ns_ai "http://ns.adobe.com/AdobeIllustrator/10.0/">
        <!ENTITY ns_graphs "http://ns.adobe.com/Graphs/1.0/">
        <!ENTITY ns_vars "http://ns.adobe.com/Variables/1.0/">
        <!ENTITY ns_imrep "http://ns.adobe.com/ImageReplacement/1.0/">
        <!ENTITY ns_sfw "http://ns.adobe.com/SaveForWeb/1.0/">
        <!ENTITY ns_custom "http://ns.adobe.com/GenericCustomNamespace/1.0/">
        <!ENTITY ns_adobe_xpath "http://ns.adobe.com/XPath/1.0/">
        ]>
<svg version="1.1" id="Layer_1" xmlns:x="&ns_extend;" xmlns:i="&ns_ai;" xmlns:graph="&ns_graphs;"
	 xmlns="http://www.w3.org/2000/svg" xmlns:xlink="http://www.w3.org/1999/xlink" x="0px" y="0px" viewBox="0 0 283.5 15.7"
	 style="enable-background:new 0 0 283.5 15.7;" xml:space="preserve">
<style type="text/css">
	.st0{fill:#FFFFFF;}
</style>
<path class="st0" d="M276.5,1.3c-0.4-0.7-0.9-1.1-1.6-1.1c-0.6,0-5.8,0-5.8,0c-0.6,0-0.9,0.4-0.9,0.9v0.2
	c0,0.6,0.5,0.9,0.9,0.9h0.8c-0.7,1.4-6.1,11.4-6.3,11.7c-0.2,0.3-0.7,1.5,0.7,1.5h1c0.7,0,0.8-0.3,1-0.7c0.2-0.3,1.4-3,1.5-3.1
	c0.2-0.3,0.2-0.3,0.4-0.3h9.3c0.3,0,0.3,0,0.4,0.3l1.5,3.1c0.2,0.4,0.5,0.7,1.1,0.7h1.9c1.4,0,1.1-1,0.9-1.3
	C283.2,13.8,276.8,1.7,276.5,1.3z M269.2,9c0-0.1,3.2-6.3,3.4-6.5c0,0,0.1-0.1,0.1-0.1c0.1-0.1,0.1-0.2,0.3-0.2
	c0.2,0,0.3,0,0.3,0.2l0,0.1c0.1,0.2,3.3,6.2,3.4,6.5c0,0,0,0,0,0L269.2,9C269.2,9,269.2,9,269.2,9z"/>
<path class="st0" d="M260,0.2h-3.1c-0.6,0-0.9,0.3-0.9,0.9v0.2c0,0.2,0.1,0.9,0.9,0.9h0.7v12c0,0.6,0.1,1.1,1.1,1.1h1.3
	c1,0,1.1-0.6,1.1-1.1V1.3C261.1,0.5,260.8,0.2,260,0.2z"/>
<path class="st0" d="M212.2,2c-0.1-1.1-0.7-1.8-1.6-1.8h-3.1c-0.9,0-1.4,0.4-1.7,1.1c-0.2,0.5-1.5,4.4-2.6,7.5
	c-0.6,1.8-1.2,3.4-1.3,3.8c-0.2-0.6-0.9-2.7-1.7-4.9c-1-2.9-2.1-6.1-2.2-6.4c-0.2-0.7-0.9-1.1-1.7-1.1c-0.2,0-5.5,0-5.5,0
	c-0.9,0-0.9,0.6-0.9,0.9v0.2c0,0.4,0.2,0.9,0.9,0.9h0.8c-0.1,1.2-1.1,11.7-1.2,12c-0.1,1.2,0.5,1.2,0.9,1.2h0.9
	c0.6,0,0.9-0.1,1-1.2c0,0,0.9-11.6,0.9-11.7c0-0.2,0.1-0.2,0.1-0.2c0.2,0,0.2,0,0.2,0.3c0,0.1,3.8,10.8,4.1,11.7
	c0.4,1.1,1.4,1.1,1.7,1.1h2.2c0.8,0,1.4-0.4,1.7-1.1c0.2-0.4,4.1-11.6,4.1-11.7c0.1-0.2,0.1-0.3,0.2-0.3c0.2,0,0.2,0,0.2,0.2
	c0,0.1,1,11.6,1,11.9c0.1,0.6,0.4,0.9,1,0.9h1.7c0.4,0,1-0.1,0.9-1C213.2,14.2,212.3,2.6,212.2,2z"/>
<path class="st0" d="M244.5,0.2h-9.1c-0.6,0-0.9,0.3-0.9,0.9v0.2c0,0.6,0.3,0.9,0.9,0.9h0.6v11.3c0,1,0.8,1.8,1.7,1.8h6.8
	c7.7,0,9.1-2.6,9.1-7.7C253.5,2.8,252.1,0.2,244.5,0.2z M249.7,7.5c0,4.4-1.3,5.6-6,5.6h-4.1c0,0,0,0,0,0V2.4
	c0-0.1,0-0.1,0.1-0.1h4.1C248.2,2.3,249.7,3.1,249.7,7.5z"/>
<path class="st0" d="M53.8,8.5c-0.2,0-0.3-0.1-0.3-0.2c0-0.1,0.1-0.1,0.3-0.2c1.9-0.5,3.4-1.2,3.4-3.6c0-3.7-3.2-4.2-6-4.2
	H40.5c-0.5,0-0.9,0.2-0.9,0.9v0.2c0,0.7,0.5,0.9,0.9,0.9h0.6v12c0,0.8,0.3,1.1,1.1,1.1h1.4c0.8,0,1.1-0.3,1.1-1.1V9.5
	c0,0,0,0,0,0l5,0.1c1.6,0.1,3.7,0.2,3.8,2.1l0.1,2.6c0.1,0.8,0.4,1.1,1.2,1.1h1.4c0.4,0,0.7-0.1,1-0.3c0.2-0.2,0.3-0.4,0.3-0.7
	L57.4,12C57.2,9.3,55.5,8.8,53.8,8.5z M53.4,4.8c0,2.3-2.1,2.4-4,2.4l-4.7,0.1c0,0,0,0,0,0V2.5c0,0,0,0,0,0h5.8
	C53.2,2.4,53.4,3.5,53.4,4.8z"/>
<path class="st0" d="M162.1,15c0.1-0.3,0-0.6-0.2-0.8c-0.3-0.3-6.6-6.1-7.4-6.9l6.6-5.8c0.2-0.2,0.3-0.5,0.2-0.8
	c-0.1-0.3-0.4-0.4-0.7-0.4h-1.7c-0.4,0-0.6,0.1-0.8,0.3c-0.2,0.2-6.3,5.7-6.4,5.8c-0.2,0.2-0.3,0.2-1.1,0.3
	c-1,0.1-1.4,0.1-1.4,0.1c0,0,0,0,0,0V1.4c0-0.8-0.4-1.1-1.1-1.1h-3.1c-0.7,0-0.9,0.6-0.9,0.9v0.2c0,0.6,0.3,0.9,0.9,0.9h0.6v12
	c0,0.8,0.4,1.1,1.1,1.1h1.4c0.8,0,1.1-0.4,1.1-1.1c0,0,0-5.3,0-5.3c0-0.1,0-0.1,0-0.1s0,0,0,0c0.1,0,1,0,1.5,0.1
	c0.6,0,0.9,0.1,1.1,0.3c0.2,0.2,4.3,4.4,5.6,5.7c0.3,0.3,0.5,0.5,1.1,0.5h2.8C161.7,15.4,162,15.2,162.1,15z"/>
<path class="st0" d="M14.9,7.7c-0.3-0.1-0.3-0.1-0.3-0.2c0-0.1,0-0.2,0.3-0.2c2.3-0.4,3.3-1.4,3.3-3.2c0-1.8-0.7-3.8-5.8-3.8
	H0.9C0.5,0.3,0,0.5,0,1.2v0.2C0,2,0.5,2.2,0.9,2.2h0.6v11.3c0,1.1,0.8,1.8,1.8,1.8H12c1.7,0,6.8,0,6.8-4
	C18.8,8.4,16.5,8,14.9,7.7z M5.2,2.4c0,0,6.5,0,6.5,0c2.4,0,2.6,1,2.6,2c0,1.6-1.2,1.9-3.1,2.1c-1.8,0.1-6,0.2-6.1,0.2
	c0,0,0,0,0,0L5.2,2.4C5.2,2.4,5.2,2.4,5.2,2.4L5.2,2.4z M5.2,8.7C5.2,8.6,5.2,8.6,5.2,8.7L5.2,8.7c0.5,0,3.4,0,6.1,0.1
	C14.4,9,15,9.6,15,11.1c0,1.9-1.8,2.2-3.3,2.2H5.2c0,0,0,0,0-0.1V8.7z"/>
<path class="st0" d="M36.2,0.3H22.1c-0.6,0-0.9,0.4-0.9,0.9v0.2c0,0.6,0.3,0.9,0.9,0.9c0.2,0,0.5,0,0.6,0v11.3
	c0,1,0.7,1.8,1.7,1.8h11.7c0.8,0,1-0.3,1-1v-0.3c0-0.6-0.2-1-1-1c0,0-9.8,0-9.8,0c0,0,0,0,0,0V8.5c0,0,0,0,0,0h7
	c0.9,0,1.1-0.4,1.1-1V7.2c0-0.5-0.1-1-1.1-1h-7c0,0,0,0,0,0V2.6c0-0.1,0-0.1,0-0.1h9.8c1.1,0,1.1-0.6,1.1-1V1.3
	C37.2,0.9,37.2,0.3,36.2,0.3z"/>
<path class="st0" d="M75.1,14c0-0.6-0.1-1-1.1-1h-8.7c0,0,0,0,0,0V1.4c0-0.7-0.2-1.2-1.1-1.2H61c-0.7,0-0.9,0.5-0.9,0.9v0.2
	c0,0.4,0.3,0.9,0.9,0.9h0.6v11.3c0,1,0.8,1.8,1.7,1.8H74c1,0,1-0.4,1-1C75.1,14.2,75.1,14.1,75.1,14z"/>
<path class="st0" d="M79.3,0.3h-3.1c-0.8,0-0.9,0.6-0.9,0.9v0.2c0,0.2,0.1,0.9,0.9,0.9h0.7v12c0,0.6,0.1,1.1,1.1,1.1h1.3
	c1,0,1.1-0.6,1.1-1.1V1.4C80.4,0.6,80.1,0.3,79.3,0.3z"/>
<path class="st0" d="M85.3,14.2c0,0.9,0.2,1.2,1,1.2h0.8c0.7,0,1-0.3,1-1.2c0-0.5,0-11.6,0-11.7c0-0.2,0-0.2,0.1-0.2
	c0.1,0,0.2,0.1,0.3,0.3c0.1,0.2,7.1,11.1,7.6,11.9c0.4,0.6,1,0.9,1.7,0.9c0.3,0,2.4,0,3,0c1,0,1.7-0.7,1.7-1.8
	c0-0.6,0.1-11.7,0.1-12.1c0-0.8-0.2-1.1-0.9-1.1h-0.8c-0.7,0-1,0.3-1,1.2c0,0.6,0.1,11.6,0.1,11.7c0,0.2,0,0.2-0.1,0.2
	c-0.1,0-0.1-0.1-0.3-0.3c-0.1-0.1-7.4-11.6-7.6-11.8c-0.4-0.6-0.9-0.9-1.6-0.9h-5.3c-0.7,0-0.9,0.5-0.9,0.9v0.2
	c0,0.6,0.4,0.9,0.9,0.9h0.6l0,0.3C85.3,11.7,85.3,13.9,85.3,14.2z"/>
<path class="st0" d="M115.7,15.7c2.1,0,4-0.2,5.5-0.5c1.4-0.3,1.6-1,1.6-2.6V8.2c0-1.1-0.7-1.5-1.4-1.5c-0.3,0-4.3,0.1-4.7,0.1
	c-1.1,0-1.1,0.7-1.1,1.1v0.3c0,0.7,0.1,1,1.1,1c0.5,0,2.4,0.2,2.4,0.2c0.1,0,0.2,0,0.2,0.3v3.6c0,0.1,0,0.1-0.1,0.1
	c-0.9,0.1-2.3,0.2-3.7,0.2c-3.8,0-5.9-0.9-5.9-5.8c0-4.6,2.2-5.4,6.5-5.4c2,0,5.8,0.5,5.8,0.5c0.5,0,0.6-0.3,0.6-0.6
	c0-0.5,0.1-0.9,0.1-0.9c0-0.4-0.2-0.6-0.6-0.7c0,0-2.1-0.6-6.7-0.6c-6.4,0-9.5,2.5-9.5,7.7C105.7,14.4,109.2,15.7,115.7,15.7z"
	/>
<path class="st0" d="M133.3,13.3c-3-0.1-6.5-0.9-6.5-0.9c-0.4,0-0.6,0.2-0.7,0.6c0,0-0.1,1.2-0.1,1.2c-0.1,0.5,0.5,0.7,0.7,0.8
	c0.3,0.1,4.5,0.7,8.2,0.7l0,0c1.2,0,6.9,0.1,6.9-4.8c0-4.2-3.5-4.6-7.2-4.9c-4.5-0.3-5-0.5-5-1.9c0-1,0.6-1.8,4.6-1.8
	c2.7,0,5.9,0.6,6,0.6c0.4,0,0.6-0.2,0.7-0.6c0-0.1,0.1-1,0.1-1.1c0-0.3-0.2-0.6-0.6-0.7c-1.6-0.3-3.9-0.6-6.3-0.6
	c-4,0-7.9,0.3-7.9,4.5c0,4,2.6,4.3,7.7,5c3.4,0.4,4.5,0.1,4.5,1.9C138.2,12.8,137,13.5,133.3,13.3z"/>
<path class="st0" d="M178,0.3H164c-0.6,0-0.9,0.4-0.9,0.9v0.2c0,0.6,0.3,0.9,0.9,0.9c0.2,0,0.5,0,0.6,0v11.3
	c0,1,0.7,1.8,1.7,1.8H178c0.8,0,1-0.3,1-1v-0.3c0-0.6-0.2-1-1-1c0,0-9.8,0-9.8,0c0,0,0,0,0,0V8.5c0,0,0,0,0,0h7
	c0.9,0,1.1-0.4,1.1-1V7.2c0-0.5-0.1-1-1.1-1h-7c0,0,0,0,0,0V2.6c0-0.1,0-0.1,0-0.1h9.8c1.1,0,1.1-0.6,1.1-1V1.3
	C179.1,0.9,179.1,0.3,178,0.3z"/>
<path class="st0" d="M231.3,0.2h-14.1c-0.6,0-0.9,0.4-0.9,0.9v0.2c0,0.6,0.3,0.9,0.9,0.9c0.2,0,0.5,0,0.6,0v11.3
	c0,1,0.7,1.8,1.7,1.8h11.7c0.8,0,1-0.3,1-1V14c0-0.6-0.2-1-1-1c0,0-9.8,0-9.8,0c0,0,0,0,0,0V8.4c0,0,0,0,0,0h7
	c0.9,0,1.1-0.4,1.1-1V7.1c0-0.5-0.1-1-1.1-1h-7c0,0,0,0,0,0V2.5c0,0,0,0,0,0h9.8c1.1,0,1.1-0.6,1.1-1V1.2
	C232.4,0.8,232.4,0.2,231.3,0.2z"/>
</svg>
